<svg width="18" height="18" viewBox="0 0 18 18" fill="none" xmlns="http://www.w3.org/2000/svg">
<rect width="18" height="18" rx="9" fill="#50AF95"/>
<path fill-rule="evenodd" clip-rule="evenodd" d="M10.1387 10.107C10.0751 10.1118 9.7463 10.1312 9.01289 10.1312C8.42956 10.1312 8.0154 10.1139 7.87009 10.107C5.61579 10.0089 3.93314 9.62078 3.93314 9.15603C3.93314 8.69128 5.61579 8.30364 7.87009 8.20397V9.72045C8.01752 9.73094 8.43964 9.75559 9.02297 9.75559C9.72296 9.75559 10.0735 9.72674 10.1366 9.72097V8.20502C12.3861 8.30416 14.0651 8.69233 14.0651 9.15603C14.0651 9.61973 12.3867 10.0079 10.1366 10.1065L10.1387 10.107ZM10.1387 8.04818V6.69117H13.2781V4.62183H4.73071V6.69117H7.86956V8.04766C5.31829 8.16358 3.39966 8.66348 3.39966 9.26252C3.39966 9.86155 5.31829 10.3609 7.86956 10.4774V14.8259H10.1382V10.4758C12.6836 10.3599 14.5991 9.8605 14.5991 9.26199C14.5991 8.66348 12.6852 8.16411 10.1382 8.04766L10.1387 8.04818Z" fill="white"/>
</svg>
